<svg width="249" height="115" viewBox="0 0 249 115" fill="none" xmlns="http://www.w3.org/2000/svg">
<path d="M29.9688 5.5H43.0938L27.9062 51H19.4375L20.9375 39.2812L29.9688 5.5ZM22.0312 39.2812L23.625 51H15.0938L0 5.5H13.0625L22.0312 39.2812ZM61 28.7812C61 27.5312 60.7292 26.5417 60.1875 25.8125C59.6667 25.0625 58.7604 24.6875 57.4688 24.6875C56.7812 24.6875 56.1979 24.7917 55.7188 25C55.2604 25.2083 54.9062 25.5417 54.6562 26C54.4271 26.4583 54.3125 27.0729 54.3125 27.8438H43.0625C43.0625 25.6354 43.6771 23.6875 44.9062 22C46.1354 20.3125 47.875 18.9896 50.125 18.0312C52.375 17.0521 55.0208 16.5625 58.0625 16.5625C60.7708 16.5625 63.1979 17.0208 65.3438 17.9375C67.4896 18.8333 69.1875 20.1979 70.4375 22.0312C71.6875 23.8438 72.3125 26.1146 72.3125 28.8438V42.1875C72.3125 44.625 72.4375 46.3958 72.6875 47.5C72.9583 48.6042 73.3229 49.5833 73.7812 50.4375V51H62.5312C62.0104 49.8958 61.625 48.5417 61.375 46.9375C61.125 45.3333 61 43.6562 61 41.9062V28.7812ZM62.3438 36.3438H58.0625C56.2917 36.3438 55.0938 36.8229 54.4688 37.7812C53.8438 38.7396 53.5312 39.75 53.5312 40.8125C53.5312 41.5833 53.8125 42.2083 54.375 42.6875C54.9583 43.1458 55.6771 43.375 56.5312 43.375C57.5938 43.375 58.4896 43.1875 59.2188 42.8125C59.9688 42.4167 60.5312 41.9583 60.9062 41.4375C61.2812 40.9167 61.4375 40.4583 61.375 40.0625L63.7812 44.7812C63.3646 45.5938 62.8958 46.4062 62.375 47.2188C61.875 48.0104 61.25 48.7396 60.5 49.4062C59.75 50.0729 58.8333 50.6042 57.75 51C56.6667 51.4167 55.3542 51.625 53.8125 51.625C51.75 51.625 49.8333 51.1979 48.0625 50.3438C46.3125 49.4896 44.9062 48.2917 43.8438 46.75C42.7812 45.2083 42.25 43.4167 42.25 41.375C42.25 37.8958 43.5312 35.1667 46.0938 33.1875C48.6562 31.2083 52.6771 30.2188 58.1562 30.2188H62.3438V36.3438ZM91.0312 51.625C87.7396 51.625 84.9688 51.0312 82.7188 49.8438C80.4688 48.6562 78.7604 47.1667 77.5938 45.375C76.4479 43.5625 75.875 41.75 75.875 39.9375H86.375C86.4167 40.8333 86.6354 41.5833 87.0312 42.1875C87.4479 42.7708 88.0208 43.2188 88.75 43.5312C89.4792 43.8229 90.3438 43.9688 91.3438 43.9688C92.1979 43.9688 92.9062 43.8646 93.4688 43.6562C94.0312 43.4479 94.4583 43.1458 94.75 42.75C95.0417 42.3542 95.1875 41.8854 95.1875 41.3438C95.1875 40.8229 95 40.3958 94.625 40.0625C94.2708 39.7292 93.6354 39.4167 92.7188 39.125C91.8021 38.8125 90.5104 38.4792 88.8438 38.125C86.6771 37.6458 84.6875 36.9688 82.875 36.0938C81.0625 35.1979 79.6146 34.0417 78.5312 32.625C77.4688 31.2083 76.9375 29.5 76.9375 27.5C76.9375 25.5625 77.4896 23.7604 78.5938 22.0938C79.6979 20.4271 81.3021 19.0938 83.4062 18.0938C85.5104 17.0729 88.0625 16.5625 91.0625 16.5625C94.1458 16.5625 96.8125 17.0312 99.0625 17.9688C101.312 18.9062 103.042 20.2083 104.25 21.875C105.479 23.5417 106.094 25.4896 106.094 27.7188H94.8438C94.8438 26.4896 94.5625 25.5938 94 25.0312C93.4375 24.4688 92.4479 24.1875 91.0312 24.1875C90.4479 24.1875 89.8854 24.2917 89.3438 24.5C88.8229 24.7083 88.3958 25.0104 88.0625 25.4062C87.75 25.8021 87.5938 26.3021 87.5938 26.9062C87.5938 27.4271 87.7812 27.8958 88.1562 28.3125C88.5521 28.7083 89.1354 29.0521 89.9062 29.3438C90.6771 29.6354 91.6562 29.875 92.8438 30.0625C95.0729 30.4375 97.1875 31 99.1875 31.75C101.208 32.5 102.854 33.6042 104.125 35.0625C105.396 36.5208 106.031 38.5104 106.031 41.0312C106.031 43.0312 105.417 44.8333 104.188 46.4375C102.979 48.0417 101.25 49.3125 99 50.25C96.75 51.1667 94.0938 51.625 91.0312 51.625ZM109.375 33.8125C109.375 30.5 110 27.5521 111.25 24.9688C112.5 22.3646 114.344 20.3125 116.781 18.8125C119.219 17.3125 122.219 16.5625 125.781 16.5625C129.385 16.5625 132.406 17.3125 134.844 18.8125C137.302 20.3125 139.146 22.3646 140.375 24.9688C141.625 27.5521 142.25 30.5 142.25 33.8125V34.4062C142.25 37.6979 141.625 40.6458 140.375 43.25C139.146 45.8542 137.312 47.9062 134.875 49.4062C132.438 50.8854 129.427 51.625 125.844 51.625C122.26 51.625 119.24 50.8854 116.781 49.4062C114.344 47.9062 112.5 45.8542 111.25 43.25C110 40.6458 109.375 37.6979 109.375 34.4062V33.8125ZM120.656 34.4062C120.656 35.9479 120.792 37.3438 121.062 38.5938C121.354 39.8229 121.875 40.7917 122.625 41.5C123.375 42.2083 124.448 42.5625 125.844 42.5625C127.219 42.5625 128.281 42.2083 129.031 41.5C129.781 40.7917 130.292 39.8229 130.562 38.5938C130.854 37.3438 131 35.9479 131 34.4062V33.8125C131 32.3125 130.854 30.9479 130.562 29.7188C130.292 28.4688 129.781 27.4792 129.031 26.75C128.281 26 127.198 25.625 125.781 25.625C124.406 25.625 123.344 26 122.594 26.75C121.865 27.4792 121.354 28.4688 121.062 29.7188C120.792 30.9479 120.656 32.3125 120.656 33.8125V34.4062Z" fill="white"/>
<path d="M118.75 88.3438C118.625 91.5521 117.771 94.3854 116.188 96.8438C114.604 99.2812 112.406 101.188 109.594 102.562C106.802 103.938 103.51 104.625 99.7188 104.625C95.6146 104.625 92.1042 103.729 89.1875 101.938C86.2708 100.125 84.0417 97.5417 82.5 94.1875C80.9792 90.8333 80.2188 86.8333 80.2188 82.1875V80.3438C80.2188 75.6771 81.0208 71.6667 82.625 68.3125C84.2292 64.9583 86.4688 62.375 89.3438 60.5625C92.2396 58.75 95.6354 57.8438 99.5312 57.8438C103.573 57.8438 106.969 58.5729 109.719 60.0312C112.49 61.4896 114.625 63.4792 116.125 66C117.646 68.5208 118.542 71.3646 118.812 74.5312H107.125C107.083 72.1562 106.51 70.3854 105.406 69.2188C104.302 68.0521 102.344 67.4688 99.5312 67.4688C97.8438 67.4688 96.4479 67.875 95.3438 68.6875C94.2604 69.4792 93.4479 70.8125 92.9062 72.6875C92.3854 74.5417 92.125 77.0729 92.125 80.2812V82.1875C92.125 85.4167 92.3542 87.9688 92.8125 89.8438C93.2917 91.6979 94.0833 93.0208 95.1875 93.8125C96.3125 94.6042 97.8229 95 99.7188 95C101.281 95 102.604 94.7708 103.688 94.3125C104.771 93.8542 105.594 93.1354 106.156 92.1562C106.74 91.1771 107.042 89.9062 107.062 88.3438H118.75ZM140.312 81.7812C140.312 80.5312 140.042 79.5417 139.5 78.8125C138.979 78.0625 138.073 77.6875 136.781 77.6875C136.094 77.6875 135.51 77.7917 135.031 78C134.573 78.2083 134.219 78.5417 133.969 79C133.74 79.4583 133.625 80.0729 133.625 80.8438H122.375C122.375 78.6354 122.99 76.6875 124.219 75C125.448 73.3125 127.188 71.9896 129.438 71.0312C131.688 70.0521 134.333 69.5625 137.375 69.5625C140.083 69.5625 142.51 70.0208 144.656 70.9375C146.802 71.8333 148.5 73.1979 149.75 75.0312C151 76.8438 151.625 79.1146 151.625 81.8438V95.1875C151.625 97.625 151.75 99.3958 152 100.5C152.271 101.604 152.635 102.583 153.094 103.438V104H141.844C141.323 102.896 140.938 101.542 140.688 99.9375C140.438 98.3333 140.312 96.6562 140.312 94.9062V81.7812ZM141.656 89.3438H137.375C135.604 89.3438 134.406 89.8229 133.781 90.7812C133.156 91.7396 132.844 92.75 132.844 93.8125C132.844 94.5833 133.125 95.2083 133.688 95.6875C134.271 96.1458 134.99 96.375 135.844 96.375C136.906 96.375 137.802 96.1875 138.531 95.8125C139.281 95.4167 139.844 94.9583 140.219 94.4375C140.594 93.9167 140.75 93.4583 140.688 93.0625L143.094 97.7812C142.677 98.5938 142.208 99.4062 141.688 100.219C141.188 101.01 140.562 101.74 139.812 102.406C139.062 103.073 138.146 103.604 137.062 104C135.979 104.417 134.667 104.625 133.125 104.625C131.062 104.625 129.146 104.198 127.375 103.344C125.625 102.49 124.219 101.292 123.156 99.75C122.094 98.2083 121.562 96.4167 121.562 94.375C121.562 90.8958 122.844 88.1667 125.406 86.1875C127.969 84.2083 131.99 83.2188 137.469 83.2188H141.656V89.3438ZM168.094 104H156.844V70.1875H167.375L168.094 77.4062V104ZM164.188 86.2812C164.167 82.6979 164.698 79.6667 165.781 77.1875C166.865 74.6875 168.385 72.7917 170.344 71.5C172.323 70.2083 174.615 69.5625 177.219 69.5625C179.302 69.5625 181.135 69.9792 182.719 70.8125C184.302 71.6458 185.542 73.0312 186.438 74.9688C187.354 76.9062 187.812 79.5521 187.812 82.9062V104H176.5V82.875C176.5 81.6667 176.323 80.7604 175.969 80.1562C175.635 79.5521 175.135 79.1458 174.469 78.9375C173.823 78.7292 173.021 78.625 172.062 78.625C171.062 78.625 170.219 78.8021 169.531 79.1562C168.865 79.4896 168.323 79.9896 167.906 80.6562C167.51 81.3021 167.219 82.0833 167.031 83C166.865 83.9167 166.781 84.9375 166.781 86.0625L164.188 86.2812ZM211.656 78.3125H190.875V70.1875H211.656V78.3125ZM206.25 61.7812V92.3438C206.25 93.1354 206.344 93.7604 206.531 94.2188C206.719 94.6562 207.052 94.9688 207.531 95.1562C208.031 95.3438 208.708 95.4375 209.562 95.4375C210.146 95.4375 210.635 95.4271 211.031 95.4062C211.427 95.3854 211.792 95.3438 212.125 95.2812V103.656C211.167 103.99 210.188 104.229 209.188 104.375C208.208 104.542 207.135 104.625 205.969 104.625C203.635 104.625 201.646 104.26 200 103.531C198.375 102.781 197.135 101.625 196.281 100.062C195.427 98.4792 195 96.4479 195 93.9688V61.7812H206.25ZM213.562 86.8125C213.562 83.5 214.188 80.5521 215.438 77.9688C216.688 75.3646 218.531 73.3125 220.969 71.8125C223.406 70.3125 226.406 69.5625 229.969 69.5625C233.573 69.5625 236.594 70.3125 239.031 71.8125C241.49 73.3125 243.333 75.3646 244.562 77.9688C245.812 80.5521 246.438 83.5 246.438 86.8125V87.4062C246.438 90.6979 245.812 93.6458 244.562 96.25C243.333 98.8542 241.5 100.906 239.062 102.406C236.625 103.885 233.615 104.625 230.031 104.625C226.448 104.625 223.427 103.885 220.969 102.406C218.531 100.906 216.688 98.8542 215.438 96.25C214.188 93.6458 213.562 90.6979 213.562 87.4062V86.8125ZM224.844 87.4062C224.844 88.9479 224.979 90.3438 225.25 91.5938C225.542 92.8229 226.062 93.7917 226.812 94.5C227.562 95.2083 228.635 95.5625 230.031 95.5625C231.406 95.5625 232.469 95.2083 233.219 94.5C233.969 93.7917 234.479 92.8229 234.75 91.5938C235.042 90.3438 235.188 88.9479 235.188 87.4062V86.8125C235.188 85.3125 235.042 83.9479 234.75 82.7188C234.479 81.4688 233.969 80.4792 233.219 79.75C232.469 79 231.385 78.625 229.969 78.625C228.594 78.625 227.531 79 226.781 79.75C226.052 80.4792 225.542 81.4688 225.25 82.7188C224.979 83.9479 224.844 85.3125 224.844 86.8125V87.4062Z" fill="white"/>
<path d="M158.06 51.293C156.712 51.293 155.579 50.9463 154.661 50.2529C153.753 49.5498 153.064 48.5928 152.596 47.3818C152.137 46.1709 151.907 44.7988 151.907 43.2656V42.958C151.907 41.3564 152.137 39.9502 152.596 38.7393C153.064 37.5186 153.758 36.5664 154.676 35.8828C155.594 35.1992 156.731 34.8574 158.089 34.8574C159.29 34.8574 160.291 35.2383 161.092 36C161.902 36.752 162.542 37.7578 163.011 39.0176C163.479 40.2773 163.816 41.6689 164.021 43.1924V43.2217C163.816 44.6377 163.475 45.9609 162.996 47.1914C162.527 48.4121 161.888 49.4033 161.077 50.165C160.276 50.917 159.271 51.293 158.06 51.293ZM159.422 47.0449C160.018 47.0449 160.506 46.9033 160.887 46.6201C161.277 46.3369 161.561 45.9268 161.736 45.3896C161.912 44.8525 161.976 44.208 161.927 43.4561V42.958C161.956 42.2842 161.922 41.7031 161.824 41.2148C161.727 40.7266 161.575 40.3311 161.37 40.0283C161.165 39.7158 160.901 39.4863 160.579 39.3398C160.257 39.1836 159.881 39.1055 159.451 39.1055C158.885 39.1055 158.436 39.2715 158.104 39.6035C157.771 39.9355 157.532 40.3896 157.386 40.9658C157.249 41.542 157.181 42.2061 157.181 42.958V43.2656C157.181 43.9785 157.244 44.623 157.371 45.1992C157.508 45.7656 157.737 46.2148 158.06 46.5469C158.382 46.8789 158.836 47.0449 159.422 47.0449ZM162.059 51L161.502 47.2354V28.5H166.805V51H162.059ZM177.293 51.293C175.535 51.293 174.036 50.9365 172.796 50.2236C171.565 49.5107 170.628 48.5732 169.983 47.4111C169.339 46.2393 169.017 44.9746 169.017 43.6172V43.0752C169.017 41.5615 169.3 40.1846 169.866 38.9443C170.433 37.6943 171.287 36.7031 172.43 35.9707C173.572 35.2285 175.008 34.8574 176.736 34.8574C178.27 34.8574 179.578 35.1748 180.662 35.8096C181.746 36.4346 182.576 37.333 183.152 38.5049C183.738 39.667 184.031 41.0586 184.031 42.6797V44.8916H170.994V41.5078H178.875V41.083C178.885 40.624 178.807 40.248 178.641 39.9551C178.475 39.6621 178.226 39.4473 177.894 39.3105C177.571 39.1738 177.171 39.1055 176.692 39.1055C176.009 39.1055 175.496 39.2959 175.154 39.6768C174.812 40.0576 174.583 40.5508 174.466 41.1562C174.349 41.752 174.29 42.3916 174.29 43.0752V43.6172C174.29 44.3203 174.422 44.9307 174.686 45.4482C174.949 45.9561 175.33 46.3467 175.828 46.6201C176.336 46.8936 176.941 47.0303 177.645 47.0303C178.289 47.0303 178.934 46.918 179.578 46.6934C180.232 46.4688 180.784 46.0732 181.233 45.5068L183.606 48.5391C183.118 49.2227 182.327 49.8525 181.233 50.4287C180.149 51.0049 178.836 51.293 177.293 51.293Z" fill="white"/>
</svg>
