<svg width="167" height="47" viewBox="0 0 167 47" fill="none" xmlns="http://www.w3.org/2000/svg">
<path d="M38.5312 30.5C38.4062 33.7083 37.5521 36.5417 35.9688 39C34.3854 41.4375 32.1875 43.3438 29.375 44.7188C26.5833 46.0938 23.2917 46.7812 19.5 46.7812C15.3958 46.7812 11.8854 45.8854 8.96875 44.0938C6.05208 42.2812 3.82292 39.6979 2.28125 36.3438C0.760417 32.9896 0 28.9896 0 24.3438V22.5C0 17.8333 0.802083 13.8229 2.40625 10.4688C4.01042 7.11458 6.25 4.53125 9.125 2.71875C12.0208 0.90625 15.4167 0 19.3125 0C23.3542 0 26.75 0.729167 29.5 2.1875C32.2708 3.64583 34.4062 5.63542 35.9062 8.15625C37.4271 10.6771 38.3229 13.5208 38.5938 16.6875H26.9062C26.8646 14.3125 26.2917 12.5417 25.1875 11.375C24.0833 10.2083 22.125 9.625 19.3125 9.625C17.625 9.625 16.2292 10.0312 15.125 10.8438C14.0417 11.6354 13.2292 12.9688 12.6875 14.8438C12.1667 16.6979 11.9062 19.2292 11.9062 22.4375V24.3438C11.9062 27.5729 12.1354 30.125 12.5938 32C13.0729 33.8542 13.8646 35.1771 14.9688 35.9688C16.0938 36.7604 17.6042 37.1562 19.5 37.1562C21.0625 37.1562 22.3854 36.9271 23.4688 36.4688C24.5521 36.0104 25.375 35.2917 25.9375 34.3125C26.5208 33.3333 26.8229 32.0625 26.8438 30.5H38.5312ZM60.0938 23.9375C60.0938 22.6875 59.8229 21.6979 59.2812 20.9688C58.7604 20.2188 57.8542 19.8438 56.5625 19.8438C55.875 19.8438 55.2917 19.9479 54.8125 20.1562C54.3542 20.3646 54 20.6979 53.75 21.1562C53.5208 21.6146 53.4062 22.2292 53.4062 23H42.1562C42.1562 20.7917 42.7708 18.8438 44 17.1562C45.2292 15.4688 46.9688 14.1458 49.2188 13.1875C51.4688 12.2083 54.1146 11.7188 57.1562 11.7188C59.8646 11.7188 62.2917 12.1771 64.4375 13.0938C66.5833 13.9896 68.2812 15.3542 69.5312 17.1875C70.7812 19 71.4062 21.2708 71.4062 24V37.3438C71.4062 39.7812 71.5312 41.5521 71.7812 42.6562C72.0521 43.7604 72.4167 44.7396 72.875 45.5938V46.1562H61.625C61.1042 45.0521 60.7188 43.6979 60.4688 42.0938C60.2188 40.4896 60.0938 38.8125 60.0938 37.0625V23.9375ZM61.4375 31.5H57.1562C55.3854 31.5 54.1875 31.9792 53.5625 32.9375C52.9375 33.8958 52.625 34.9062 52.625 35.9688C52.625 36.7396 52.9062 37.3646 53.4688 37.8438C54.0521 38.3021 54.7708 38.5312 55.625 38.5312C56.6875 38.5312 57.5833 38.3438 58.3125 37.9688C59.0625 37.5729 59.625 37.1146 60 36.5938C60.375 36.0729 60.5312 35.6146 60.4688 35.2188L62.875 39.9375C62.4583 40.75 61.9896 41.5625 61.4688 42.375C60.9688 43.1667 60.3438 43.8958 59.5938 44.5625C58.8438 45.2292 57.9271 45.7604 56.8438 46.1562C55.7604 46.5729 54.4479 46.7812 52.9062 46.7812C50.8438 46.7812 48.9271 46.3542 47.1562 45.5C45.4062 44.6458 44 43.4479 42.9375 41.9062C41.875 40.3646 41.3438 38.5729 41.3438 36.5312C41.3438 33.0521 42.625 30.3229 45.1875 28.3438C47.75 26.3646 51.7708 25.375 57.25 25.375H61.4375V31.5ZM87.875 46.1562H76.625V12.3438H87.1562L87.875 19.5625V46.1562ZM83.9688 28.4375C83.9479 24.8542 84.4792 21.8229 85.5625 19.3438C86.6458 16.8438 88.1667 14.9479 90.125 13.6562C92.1042 12.3646 94.3958 11.7188 97 11.7188C99.0833 11.7188 100.917 12.1354 102.5 12.9688C104.083 13.8021 105.323 15.1875 106.219 17.125C107.135 19.0625 107.594 21.7083 107.594 25.0625V46.1562H96.2812V25.0312C96.2812 23.8229 96.1042 22.9167 95.75 22.3125C95.4167 21.7083 94.9167 21.3021 94.25 21.0938C93.6042 20.8854 92.8021 20.7812 91.8438 20.7812C90.8438 20.7812 90 20.9583 89.3125 21.3125C88.6458 21.6458 88.1042 22.1458 87.6875 22.8125C87.2917 23.4583 87 24.2396 86.8125 25.1562C86.6458 26.0729 86.5625 27.0938 86.5625 28.2188L83.9688 28.4375ZM131.438 20.4688H110.656V12.3438H131.438V20.4688ZM126.031 3.9375V34.5C126.031 35.2917 126.125 35.9167 126.312 36.375C126.5 36.8125 126.833 37.125 127.312 37.3125C127.812 37.5 128.49 37.5938 129.344 37.5938C129.927 37.5938 130.417 37.5833 130.812 37.5625C131.208 37.5417 131.573 37.5 131.906 37.4375V45.8125C130.948 46.1458 129.969 46.3854 128.969 46.5312C127.99 46.6979 126.917 46.7812 125.75 46.7812C123.417 46.7812 121.427 46.4167 119.781 45.6875C118.156 44.9375 116.917 43.7812 116.062 42.2188C115.208 40.6354 114.781 38.6042 114.781 36.125V3.9375H126.031ZM133.344 28.9688C133.344 25.6562 133.969 22.7083 135.219 20.125C136.469 17.5208 138.312 15.4688 140.75 13.9688C143.188 12.4688 146.188 11.7188 149.75 11.7188C153.354 11.7188 156.375 12.4688 158.812 13.9688C161.271 15.4688 163.115 17.5208 164.344 20.125C165.594 22.7083 166.219 25.6562 166.219 28.9688V29.5625C166.219 32.8542 165.594 35.8021 164.344 38.4062C163.115 41.0104 161.281 43.0625 158.844 44.5625C156.406 46.0417 153.396 46.7812 149.812 46.7812C146.229 46.7812 143.208 46.0417 140.75 44.5625C138.312 43.0625 136.469 41.0104 135.219 38.4062C133.969 35.8021 133.344 32.8542 133.344 29.5625V28.9688ZM144.625 29.5625C144.625 31.1042 144.76 32.5 145.031 33.75C145.323 34.9792 145.844 35.9479 146.594 36.6562C147.344 37.3646 148.417 37.7188 149.812 37.7188C151.188 37.7188 152.25 37.3646 153 36.6562C153.75 35.9479 154.26 34.9792 154.531 33.75C154.823 32.5 154.969 31.1042 154.969 29.5625V28.9688C154.969 27.4688 154.823 26.1042 154.531 24.875C154.26 23.625 153.75 22.6354 153 21.9062C152.25 21.1562 151.167 20.7812 149.75 20.7812C148.375 20.7812 147.312 21.1562 146.562 21.9062C145.833 22.6354 145.323 23.625 145.031 24.875C144.76 26.1042 144.625 27.4688 144.625 28.9688V29.5625Z" fill="white"/>
</svg>
