<svg width="33" height="23" viewBox="0 0 33 23" fill="none" xmlns="http://www.w3.org/2000/svg">
<path d="M6.15234 22.793C4.80469 22.793 3.67188 22.4463 2.75391 21.7529C1.8457 21.0498 1.15723 20.0928 0.688477 18.8818C0.229492 17.6709 0 16.2988 0 14.7656V14.458C0 12.8564 0.229492 11.4502 0.688477 10.2393C1.15723 9.01855 1.85059 8.06641 2.76855 7.38281C3.68652 6.69922 4.82422 6.35742 6.18164 6.35742C7.38281 6.35742 8.38379 6.73828 9.18457 7.5C9.99512 8.25195 10.6348 9.25781 11.1035 10.5176C11.5723 11.7773 11.9092 13.1689 12.1143 14.6924V14.7217C11.9092 16.1377 11.5674 17.4609 11.0889 18.6914C10.6201 19.9121 9.98047 20.9033 9.16992 21.665C8.36914 22.417 7.36328 22.793 6.15234 22.793ZM7.51465 18.5449C8.11035 18.5449 8.59863 18.4033 8.97949 18.1201C9.37012 17.8369 9.65332 17.4268 9.8291 16.8896C10.0049 16.3525 10.0684 15.708 10.0195 14.9561V14.458C10.0488 13.7842 10.0146 13.2031 9.91699 12.7148C9.81934 12.2266 9.66797 11.8311 9.46289 11.5283C9.25781 11.2158 8.99414 10.9863 8.67188 10.8398C8.34961 10.6836 7.97363 10.6055 7.54395 10.6055C6.97754 10.6055 6.52832 10.7715 6.19629 11.1035C5.86426 11.4355 5.625 11.8896 5.47852 12.4658C5.3418 13.042 5.27344 13.7061 5.27344 14.458V14.7656C5.27344 15.4785 5.33691 16.123 5.46387 16.6992C5.60059 17.2656 5.83008 17.7148 6.15234 18.0469C6.47461 18.3789 6.92871 18.5449 7.51465 18.5449ZM10.1514 22.5L9.59473 18.7354V0H14.8975V22.5H10.1514ZM25.3857 22.793C23.6279 22.793 22.1289 22.4365 20.8887 21.7236C19.6582 21.0107 18.7207 20.0732 18.0762 18.9111C17.4316 17.7393 17.1094 16.4746 17.1094 15.1172V14.5752C17.1094 13.0615 17.3926 11.6846 17.959 10.4443C18.5254 9.19434 19.3799 8.20312 20.5225 7.4707C21.665 6.72852 23.1006 6.35742 24.8291 6.35742C26.3623 6.35742 27.6709 6.6748 28.7549 7.30957C29.8389 7.93457 30.6689 8.83301 31.2451 10.0049C31.8311 11.167 32.124 12.5586 32.124 14.1797V16.3916H19.0869V13.0078H26.9678V12.583C26.9775 12.124 26.8994 11.748 26.7334 11.4551C26.5674 11.1621 26.3184 10.9473 25.9863 10.8105C25.6641 10.6738 25.2637 10.6055 24.7852 10.6055C24.1016 10.6055 23.5889 10.7959 23.2471 11.1768C22.9053 11.5576 22.6758 12.0508 22.5586 12.6562C22.4414 13.252 22.3828 13.8916 22.3828 14.5752V15.1172C22.3828 15.8203 22.5146 16.4307 22.7783 16.9482C23.042 17.4561 23.4229 17.8467 23.9209 18.1201C24.4287 18.3936 25.0342 18.5303 25.7373 18.5303C26.3818 18.5303 27.0264 18.418 27.6709 18.1934C28.3252 17.9688 28.877 17.5732 29.3262 17.0068L31.6992 20.0391C31.2109 20.7227 30.4199 21.3525 29.3262 21.9287C28.2422 22.5049 26.9287 22.793 25.3857 22.793Z" fill="white"/>
</svg>
