<svg width="143" height="47" viewBox="0 0 143 47" fill="none" xmlns="http://www.w3.org/2000/svg">
<path d="M29.9688 0H43.0938L27.9062 45.5H19.4375L20.9375 33.7812L29.9688 0ZM22.0312 33.7812L23.625 45.5H15.0938L0 0H13.0625L22.0312 33.7812ZM61 23.2812C61 22.0312 60.7292 21.0417 60.1875 20.3125C59.6667 19.5625 58.7604 19.1875 57.4688 19.1875C56.7812 19.1875 56.1979 19.2917 55.7188 19.5C55.2604 19.7083 54.9062 20.0417 54.6562 20.5C54.4271 20.9583 54.3125 21.5729 54.3125 22.3438H43.0625C43.0625 20.1354 43.6771 18.1875 44.9062 16.5C46.1354 14.8125 47.875 13.4896 50.125 12.5312C52.375 11.5521 55.0208 11.0625 58.0625 11.0625C60.7708 11.0625 63.1979 11.5208 65.3438 12.4375C67.4896 13.3333 69.1875 14.6979 70.4375 16.5312C71.6875 18.3438 72.3125 20.6146 72.3125 23.3438V36.6875C72.3125 39.125 72.4375 40.8958 72.6875 42C72.9583 43.1042 73.3229 44.0833 73.7812 44.9375V45.5H62.5312C62.0104 44.3958 61.625 43.0417 61.375 41.4375C61.125 39.8333 61 38.1562 61 36.4062V23.2812ZM62.3438 30.8438H58.0625C56.2917 30.8438 55.0938 31.3229 54.4688 32.2812C53.8438 33.2396 53.5312 34.25 53.5312 35.3125C53.5312 36.0833 53.8125 36.7083 54.375 37.1875C54.9583 37.6458 55.6771 37.875 56.5312 37.875C57.5938 37.875 58.4896 37.6875 59.2188 37.3125C59.9688 36.9167 60.5312 36.4583 60.9062 35.9375C61.2812 35.4167 61.4375 34.9583 61.375 34.5625L63.7812 39.2812C63.3646 40.0938 62.8958 40.9062 62.375 41.7188C61.875 42.5104 61.25 43.2396 60.5 43.9062C59.75 44.5729 58.8333 45.1042 57.75 45.5C56.6667 45.9167 55.3542 46.125 53.8125 46.125C51.75 46.125 49.8333 45.6979 48.0625 44.8438C46.3125 43.9896 44.9062 42.7917 43.8438 41.25C42.7812 39.7083 42.25 37.9167 42.25 35.875C42.25 32.3958 43.5312 29.6667 46.0938 27.6875C48.6562 25.7083 52.6771 24.7188 58.1562 24.7188H62.3438V30.8438ZM91.0312 46.125C87.7396 46.125 84.9688 45.5312 82.7188 44.3438C80.4688 43.1562 78.7604 41.6667 77.5938 39.875C76.4479 38.0625 75.875 36.25 75.875 34.4375H86.375C86.4167 35.3333 86.6354 36.0833 87.0312 36.6875C87.4479 37.2708 88.0208 37.7188 88.75 38.0312C89.4792 38.3229 90.3438 38.4688 91.3438 38.4688C92.1979 38.4688 92.9062 38.3646 93.4688 38.1562C94.0312 37.9479 94.4583 37.6458 94.75 37.25C95.0417 36.8542 95.1875 36.3854 95.1875 35.8438C95.1875 35.3229 95 34.8958 94.625 34.5625C94.2708 34.2292 93.6354 33.9167 92.7188 33.625C91.8021 33.3125 90.5104 32.9792 88.8438 32.625C86.6771 32.1458 84.6875 31.4688 82.875 30.5938C81.0625 29.6979 79.6146 28.5417 78.5312 27.125C77.4688 25.7083 76.9375 24 76.9375 22C76.9375 20.0625 77.4896 18.2604 78.5938 16.5938C79.6979 14.9271 81.3021 13.5938 83.4062 12.5938C85.5104 11.5729 88.0625 11.0625 91.0625 11.0625C94.1458 11.0625 96.8125 11.5312 99.0625 12.4688C101.312 13.4062 103.042 14.7083 104.25 16.375C105.479 18.0417 106.094 19.9896 106.094 22.2188H94.8438C94.8438 20.9896 94.5625 20.0938 94 19.5312C93.4375 18.9688 92.4479 18.6875 91.0312 18.6875C90.4479 18.6875 89.8854 18.7917 89.3438 19C88.8229 19.2083 88.3958 19.5104 88.0625 19.9062C87.75 20.3021 87.5938 20.8021 87.5938 21.4062C87.5938 21.9271 87.7812 22.3958 88.1562 22.8125C88.5521 23.2083 89.1354 23.5521 89.9062 23.8438C90.6771 24.1354 91.6562 24.375 92.8438 24.5625C95.0729 24.9375 97.1875 25.5 99.1875 26.25C101.208 27 102.854 28.1042 104.125 29.5625C105.396 31.0208 106.031 33.0104 106.031 35.5312C106.031 37.5312 105.417 39.3333 104.188 40.9375C102.979 42.5417 101.25 43.8125 99 44.75C96.75 45.6667 94.0938 46.125 91.0312 46.125ZM109.375 28.3125C109.375 25 110 22.0521 111.25 19.4688C112.5 16.8646 114.344 14.8125 116.781 13.3125C119.219 11.8125 122.219 11.0625 125.781 11.0625C129.385 11.0625 132.406 11.8125 134.844 13.3125C137.302 14.8125 139.146 16.8646 140.375 19.4688C141.625 22.0521 142.25 25 142.25 28.3125V28.9062C142.25 32.1979 141.625 35.1458 140.375 37.75C139.146 40.3542 137.312 42.4062 134.875 43.9062C132.438 45.3854 129.427 46.125 125.844 46.125C122.26 46.125 119.24 45.3854 116.781 43.9062C114.344 42.4062 112.5 40.3542 111.25 37.75C110 35.1458 109.375 32.1979 109.375 28.9062V28.3125ZM120.656 28.9062C120.656 30.4479 120.792 31.8438 121.062 33.0938C121.354 34.3229 121.875 35.2917 122.625 36C123.375 36.7083 124.448 37.0625 125.844 37.0625C127.219 37.0625 128.281 36.7083 129.031 36C129.781 35.2917 130.292 34.3229 130.562 33.0938C130.854 31.8438 131 30.4479 131 28.9062V28.3125C131 26.8125 130.854 25.4479 130.562 24.2188C130.292 22.9688 129.781 21.9792 129.031 21.25C128.281 20.5 127.198 20.125 125.781 20.125C124.406 20.125 123.344 20.5 122.594 21.25C121.865 21.9792 121.354 22.9688 121.062 24.2188C120.792 25.4479 120.656 26.8125 120.656 28.3125V28.9062Z" fill="white"/>
</svg>
